
        <svg xmlns="http://www.w3.org/2000/svg" xmlns:xlink="http://www.w3.org/1999/xlink" version="1.1" width="3125.7274153033477" 
        height="691.5007841684129" viewBox="0 0 3125.7274153033477 691.5007841684129">
			
			<g transform="scale(6.28637076516739) translate(10, 10)">
				<defs id="SvgjsDefs1564"><linearGradient id="SvgjsLinearGradient1573"><stop id="SvgjsStop1574" stop-color="#2d388a" offset="0"></stop><stop id="SvgjsStop1575" stop-color="#00aeef" offset="1"></stop></linearGradient></defs><g id="SvgjsG1565" featureKey="rootContainer" transform="matrix(1,0,0,1,0,0)" fill="#137dc5"><rect y="0" height="1" width="1" opacity="0"></rect><rect y="85" width="477" height="5"></rect></g><g id="SvgjsG1566" featureKey="nameLeftFeature-0" transform="matrix(1.9219440461437918,0,0,1.9219440461437918,-7.226512344534582,-5.446540563954397)" fill="#137dc5"><path d="M25.84 13.600000000000001 c0.2 0 0.36 0.16 0.36 0.36 l0 25.68 c0 0.2 -0.16 0.36 -0.36 0.36 l-4.36 0 c-0.12 0 -0.32 -0.16 -0.32 -0.36 l0 -14.8 l-4.4 14.92 c-0.08 0.16 -0.16 0.24 -0.32 0.24 l-3.16 0 c-0.12 0 -0.28 -0.08 -0.32 -0.24 l-4.12 -15.2 l0 15.08 c0 0.2 -0.16 0.36 -0.36 0.36 l-4.44 0 c-0.16 0 -0.28 -0.16 -0.28 -0.36 l0 -25.68 c0 -0.2 0.12 -0.36 0.28 -0.36 l5.6 0 c0.16 0 0.32 0.12 0.36 0.24 l4.84 16.2 l5.32 -16.2 c0 -0.12 0.12 -0.24 0.28 -0.24 l5.4 0 z M23.36 37.56 c0 0.28 0.52 0.36 0.52 0 l0 -21.56 c0 -0.08 -0.12 -0.2 -0.24 -0.2 l-1.88 0 c-0.16 0 -0.2 0.12 -0.28 0.2 l-6.64 19.8 l-6.6 -19.84 c0 -0.12 -0.08 -0.16 -0.2 -0.16 l-1.96 0 c-0.12 0 -0.24 0.12 -0.24 0.24 l0 21.52 c0 0.28 0.52 0.36 0.52 0 l0 -21.24 l1.48 0 l6.76 20.32 c0.16 0.28 0.28 0.2 0.48 0 l6.8 -20.32 l1.48 0 l0 21.24 z M49.469 29.560000000000002 c-0.56 1.16 -1.36 2.04 -2.48 2.56 l3.36 7.4 c0.12 0.24 -0.04 0.48 -0.28 0.48 l-4.92 0 c-0.16 0 -0.24 -0.08 -0.28 -0.2 l-3.12 -6.8 l-2.04 0 l0 6.64 c0 0.2 -0.16 0.36 -0.36 0.36 l-4.6 0 c-0.16 0 -0.28 -0.16 -0.28 -0.36 l0 -25.68 c0 -0.2 0.12 -0.36 0.28 -0.36 l8.32 0 c4.44 0 7.12 2.52 7.12 7.2 l0 5.04 c0 1.4 -0.24 2.72 -0.72 3.72 z M44.949 24.6 l0 -2.6 c0 -2.8 -1.04 -3.08 -4.08 -3.08 l-1.16 0 l0 8.84 l1.16 0 c2.52 0 4 -0.04 4.08 -3.16 z M37.388999999999996 37.56 l0 -6.84 l5.76 0 l3.36 6.92 c0.08 0.2 0.56 0.12 0.44 -0.24 l-3.36 -6.8 c3.12 -0.44 4.2 -2.08 4.2 -5.04 l0 -5 c0 -4.4 -4 -4.76 -5.24 -4.76 l-5.4 0 c-0.08 0 -0.24 0.12 -0.24 0.24 l0 21.52 c0 0.28 0.48 0.28 0.48 0 z M47.309 20.56 l0 5 c0 4.08 -2.6 4.64 -5.12 4.64 l-4.8 0 l0 -13.88 l5.16 0 c4.32 0 4.76 2.92 4.76 4.24 z M70.538 30.759999999999998 l0 -1.24 c0 -0.2 0.16 -0.36 0.36 -0.36 l4.56 0 c0.2 0 0.36 0.16 0.36 0.36 l0 2.52 c0 5.88 -3.16 8.36 -9.12 8.36 c-5.56 0 -9.2 -2.2 -9.2 -8.36 l0 -10.52 c0 -5.92 3.24 -8.28 9.2 -8.28 c5.64 0 9.12 2.16 9.12 8.28 l0 0.84 c0 0.2 -0.16 0.36 -0.36 0.36 l-4.6 0 c-0.2 0 -0.36 -0.16 -0.36 -0.36 l0 -0.64 c0 -2.2 -1.64 -3.12 -3.6 -3.12 l-0.48 0 c-1.32 0 -2.2 0.36 -2.8 1.16 c-0.56 0.76 -0.76 1.76 -0.76 3.08 l0 7.92 c0 3.48 1.96 4.24 3.56 4.24 l0.48 0 c2.52 0 3.56 -1.68 3.64 -4.24 z M66.618 15.719999999999999 c-4.28 0 -6.76 1.52 -6.76 6.4 l0 9.64 c0 4.44 2.28 6.08 6.76 6.08 c4.2 0 6.72 -1.52 6.72 -6.12 c0 -0.32 -0.48 -0.32 -0.48 0 c0 4.04 -2.2 5.68 -6.24 5.68 c-3.92 0 -6.32 -1.36 -6.32 -5.64 l0 -9.64 c0 -4.16 1.96 -5.96 6.32 -5.96 c5.68 0 5.88 3.6 5.88 4 c0 0.36 0.56 0.4 0.56 0 c0 -3.32 -3.36 -4.44 -6.44 -4.44 z"></path></g><g id="SvgjsG1567" featureKey="inlineSymbolFeature-0" transform="matrix(-3.9342857142857146,0,0,3.9342857142857146,283.89714285714285,-17.408571428571435)" fill="url(#SvgjsLinearGradient1573)"><g xmlns="http://www.w3.org/2000/svg"><path d="M25,23c-3.788,0-6.798-3.205-9.708-6.305C12.543,13.766,9.946,11,7,11c-2.757,0-5,2.243-5,5s2.243,5,5,5   c1.716,0,3.468-0.931,5.68-3.019c0.401-0.377,1.035-0.36,1.414,0.041c0.379,0.401,0.361,1.035-0.041,1.414   C12.294,21.096,9.904,23,7,23c-3.86,0-7-3.141-7-7c0-3.86,3.14-7,7-7c3.491,0,6.317,2.698,9.012,5.542C18.701,11.701,21.521,9,25,9   c3.859,0,7,3.14,7,7C32,19.859,28.859,23,25,23z M17.385,16c2.508,2.654,4.919,5,7.615,5c2.757,0,5-2.243,5-5s-2.243-5-5-5   C22.303,11,19.893,13.346,17.385,16z"></path></g></g><g id="SvgjsG1568" featureKey="nameRightFeature-0" transform="matrix(1.9772723272813078,0,0,1.9772723272813078,265.50448533169725,-6.890902519621484)" fill="#137dc5"><path d="M29.789 13.600000000000001 c2.72 0 4.76 0.76 6.12 2.24 c1.2 1.32 1.8 3.28 1.8 5.68 l0 10.6 c0 4.84 -2.8 7.88 -7.92 7.88 l-10 0 c-0.2 0 -0.32 -0.16 -0.32 -0.36 l0 -25.68 c0 -0.2 0.12 -0.36 0.32 -0.36 l10 0 z M32.469 30.92 l0 -8.2 c0 -2.52 -1.32 -4.12 -4.12 -4.12 l-3.6 0 l0 16.4 l3.6 0 c2.4 0 4.12 -1.56 4.12 -4.08 z M21.909000000000002 16.04 l0 21.52 c0 0.16 0.16 0.2 0.24 0.2 l6.52 0 c4.6 0 6.68 -2.76 6.68 -5.32 l0 -10.24 c0 -4.24 -2.24 -6.4 -6.8 -6.4 l-6.4 0 c-0.08 0 -0.24 0.04 -0.24 0.24 z M34.869 22.2 l0 10.24 c0 3.2 -3.2 4.88 -6.2 4.88 l-6.28 0 l0 -21 l6.16 0 c4.2 0 6.32 1.88 6.32 5.88 z M50.458 13.84 c0.04 -0.12 0.12 -0.24 0.28 -0.24 l4.96 0 c0.16 0 0.24 0.12 0.28 0.24 l6.92 25.72 c0.04 0.24 -0.12 0.44 -0.36 0.44 l-4.56 0 c-0.12 0 -0.24 -0.08 -0.28 -0.24 l-1.56 -5.6 l-5.84 0 l-1.52 5.6 c-0.04 0.16 -0.12 0.24 -0.28 0.24 l-4.6 0 c-0.24 0 -0.4 -0.2 -0.36 -0.44 z M51.578 29.2 l3.32 0 l-1.72 -6.04 z M57.738 31.560000000000002 l1.84 6 c0.08 0.24 0.52 0.2 0.4 -0.12 l-6.4 -21.28 c-0.12 -0.52 -0.8 -0.56 -0.92 0 l-6.2 21.28 c-0.12 0.28 0.32 0.4 0.44 0.16 l1.76 -6.04 l9.08 0 z M48.778 31.04 l4.36 -14.72 l4.44 14.72 l-8.8 0 z M84.247 29.560000000000002 c-0.56 1.16 -1.36 2.04 -2.48 2.56 l3.36 7.4 c0.12 0.24 -0.04 0.48 -0.28 0.48 l-4.92 0 c-0.16 0 -0.24 -0.08 -0.28 -0.2 l-3.12 -6.8 l-2.04 0 l0 6.64 c0 0.2 -0.16 0.36 -0.36 0.36 l-4.6 0 c-0.16 0 -0.28 -0.16 -0.28 -0.36 l0 -25.68 c0 -0.2 0.12 -0.36 0.28 -0.36 l8.32 0 c4.44 0 7.12 2.52 7.12 7.2 l0 5.04 c0 1.4 -0.24 2.72 -0.72 3.72 z M79.72699999999999 24.6 l0 -2.6 c0 -2.8 -1.04 -3.08 -4.08 -3.08 l-1.16 0 l0 8.84 l1.16 0 c2.52 0 4 -0.04 4.08 -3.16 z M72.167 37.56 l0 -6.84 l5.76 0 l3.36 6.92 c0.08 0.2 0.56 0.12 0.44 -0.24 l-3.36 -6.8 c3.12 -0.44 4.2 -2.08 4.2 -5.04 l0 -5 c0 -4.4 -4 -4.76 -5.24 -4.76 l-5.4 0 c-0.08 0 -0.24 0.12 -0.24 0.24 l0 21.52 c0 0.28 0.48 0.28 0.48 0 z M82.08699999999999 20.56 l0 5 c0 4.08 -2.6 4.64 -5.12 4.64 l-4.8 0 l0 -13.88 l5.16 0 c4.32 0 4.76 2.92 4.76 4.24 z M93.116 40 c-0.2 0 -0.32 -0.16 -0.32 -0.36 l0 -25.68 c0 -0.2 0.12 -0.36 0.32 -0.36 l13.6 0 c0.2 0 0.36 0.16 0.36 0.36 l0 4.28 c0 0.2 -0.16 0.36 -0.36 0.36 l-8.64 0 l0 5.44 l6.72 0 c0.2 0 0.32 0.16 0.32 0.36 l0 4.36 c0 0.2 -0.12 0.36 -0.32 0.36 l-6.72 0 l0 5.88 l8.64 0 c0.2 0 0.36 0.16 0.36 0.36 l0 4.28 c0 0.2 -0.16 0.36 -0.36 0.36 l-13.6 0 z M95.116 16.12 l0 21.28 c0 0.24 0.16 0.32 0.32 0.32 l9.2 0 c0.36 0 0.28 -0.48 0 -0.48 l-9 0 l0 -10.44 l7.36 0 c0.24 0 0.24 -0.56 0 -0.56 l-7.36 0 l0 -9.92 l9 0 c0.28 0 0.36 -0.52 0 -0.52 l-9.2 0 c-0.16 0 -0.32 0.12 -0.32 0.32 z"></path></g>
			</g>
		</svg>
	