<?xml version="1.0" standalone="no"?>
<!DOCTYPE svg PUBLIC "-//W3C//DTD SVG 20010904//EN"
 "http://www.w3.org/TR/2001/REC-SVG-20010904/DTD/svg10.dtd">
<svg version="1.0" xmlns="http://www.w3.org/2000/svg"
 width="3126.000000pt" height="3126.000000pt" viewBox="0 0 3126.000000 3126.000000"
 preserveAspectRatio="xMidYMid meet">
<metadata>
Created by potrace 1.14, written by Peter Selinger 2001-2017
</metadata>
<g transform="translate(0.000000,3126.000000) scale(0.100000,-0.100000)"
fill="#000000" stroke="none">
<path d="M12165 17319 c-737 -49 -1380 -597 -1549 -1322 -74 -313 -57 -673 45
-963 203 -581 687 -1004 1299 -1135 91 -20 135 -23 330 -23 197 0 238 2 330
22 399 87 779 297 1215 671 157 135 489 465 848 846 762 806 1070 1074 1452
1261 227 111 397 154 611 154 395 0 755 -181 994 -501 257 -344 313 -821 141
-1218 -21 -50 -63 -130 -92 -177 -59 -94 -196 -246 -282 -312 -332 -256 -757
-328 -1157 -196 -287 95 -580 287 -946 621 -104 95 -156 122 -232 123 -183 1
-299 -188 -218 -353 47 -96 407 -403 691 -589 403 -265 833 -390 1233 -357
792 63 1432 645 1574 1428 29 164 29 429 0 593 -44 242 -153 504 -289 698
-100 140 -312 349 -447 439 -194 129 -377 208 -589 255 -639 143 -1233 -62
-1937 -668 -58 -49 -233 -217 -390 -373 l-284 -283 -236 238 c-416 420 -692
650 -1001 833 -280 165 -585 270 -832 285 -45 2 -102 6 -127 7 -25 2 -94 0
-155 -4z m367 -510 c298 -60 606 -233 964 -540 125 -108 465 -439 595 -581
l90 -96 -278 -279 c-153 -154 -330 -324 -393 -378 -477 -407 -833 -575 -1218
-575 -295 0 -531 82 -768 266 -229 177 -392 447 -451 741 -23 118 -23 338 0
455 50 253 164 466 346 649 299 299 703 421 1113 338z"/>
<path d="M8030 17194 c-314 -37 -511 -116 -660 -264 -120 -121 -187 -261 -227
-471 -16 -85 -18 -169 -18 -889 0 -851 0 -856 52 -1030 98 -331 336 -523 738
-596 139 -25 498 -25 635 -1 344 63 552 199 673 442 83 166 107 308 107 637 0
224 -1 238 -19 248 -12 6 -126 10 -300 10 -241 0 -282 -2 -295 -16 -12 -12
-16 -38 -16 -117 -1 -307 -84 -476 -271 -549 -76 -30 -259 -37 -349 -14 -162
42 -258 150 -295 333 -14 69 -16 159 -13 694 3 606 4 615 26 681 21 64 71 141
116 181 77 68 247 100 414 79 163 -21 274 -88 329 -199 22 -46 28 -74 32 -162
3 -58 10 -112 14 -118 12 -18 597 -19 615 -1 17 17 15 250 -3 368 -63 421
-301 654 -750 736 -86 15 -451 28 -535 18z m513 -327 c278 -74 440 -232 454
-445 5 -72 4 -82 -12 -88 -31 -12 -50 10 -57 67 -21 163 -112 283 -273 360
-103 49 -172 67 -322 81 -92 9 -150 9 -240 0 -292 -29 -461 -126 -553 -316
-75 -156 -75 -157 -75 -986 0 -732 0 -735 23 -815 34 -120 68 -183 141 -256
111 -111 241 -161 473 -180 212 -17 433 13 560 76 187 94 283 252 308 505 12
122 20 142 48 123 14 -9 17 -25 15 -94 -7 -242 -100 -439 -259 -544 -140 -93
-324 -130 -604 -122 -193 6 -235 12 -362 53 -188 61 -313 197 -375 409 -16 54
-18 130 -21 815 -2 498 1 779 8 825 33 218 141 386 299 469 152 78 255 96 521
92 182 -3 216 -6 303 -29z"/>
<path d="M19750 17181 c-7 -13 -10 -536 -10 -1621 0 -1085 3 -1608 10 -1621
10 -18 29 -19 683 -19 711 0 789 4 937 47 167 47 283 116 391 230 140 149 213
324 238 572 14 136 14 1439 1 1586 -42 437 -236 691 -610 798 -149 43 -225 47
-947 47 -664 0 -683 -1 -693 -19z m1330 -266 c125 -19 188 -38 285 -88 113
-58 210 -156 264 -269 88 -183 93 -245 89 -1108 l-3 -695 -27 -75 c-41 -115
-74 -168 -162 -255 -66 -65 -99 -90 -176 -128 -52 -25 -135 -57 -185 -69 -88
-22 -102 -23 -605 -23 l-515 0 -3 1349 c-1 989 1 1352 9 1362 17 21 895 20
1029 -1z"/>
<path d="M20110 15555 l0 -1307 453 5 c381 4 464 7 527 22 288 66 488 229 545
446 21 79 22 1502 1 1611 -30 156 -104 292 -199 369 -65 53 -169 102 -272 131
-76 21 -102 22 -567 26 l-488 3 0 -1306z m899 1010 c184 -44 302 -172 337
-364 20 -115 20 -1178 -1 -1276 -20 -92 -56 -163 -117 -230 -56 -62 -106 -94
-194 -127 -55 -20 -81 -22 -346 -26 l-288 -4 0 1021 0 1021 273 0 c207 0 287
-4 336 -15z"/>
<path d="M23600 17178 c-6 -13 -62 -214 -124 -448 -222 -825 -658 -2447 -701
-2605 -37 -136 -41 -163 -30 -180 12 -19 25 -20 319 -23 l306 -2 9 22 c5 13
48 169 96 348 48 179 92 333 97 343 8 16 36 17 368 17 333 0 359 -1 364 -17 3
-10 46 -164 96 -343 49 -179 94 -335 100 -347 l10 -23 299 0 c265 0 301 2 316
16 11 12 14 25 10 43 -3 14 -121 454 -261 976 -141 523 -309 1150 -375 1395
-66 245 -143 531 -171 635 -28 105 -55 196 -61 203 -7 9 -86 12 -333 12 l-324
0 -10 -22z m343 -247 c13 -5 29 -22 35 -38 6 -15 151 -494 322 -1063 171 -569
350 -1164 397 -1323 68 -225 84 -290 75 -299 -30 -30 -47 11 -161 385 l-115
377 -562 0 c-527 0 -563 -1 -568 -17 -3 -10 -51 -175 -107 -368 -55 -192 -105
-358 -110 -367 -10 -19 -44 -24 -54 -8 -3 5 170 614 385 1352 305 1049 395
1347 411 1361 25 20 21 19 52 8z"/>
<path d="M23660 15959 c-145 -492 -265 -900 -268 -906 -3 -10 108 -13 537 -13
298 0 541 3 541 7 0 4 -38 133 -85 288 -46 154 -165 550 -265 880 -99 330
-184 608 -188 619 -5 12 -89 -258 -272 -875z m379 -316 c56 -197 101 -364 101
-370 0 -10 -48 -13 -206 -13 -161 0 -205 3 -202 13 3 6 47 173 99 369 52 197
97 358 100 358 4 0 52 -161 108 -357z"/>
<path d="M25942 17188 c-17 -17 -17 -3239 0 -3256 9 -9 91 -12 309 -12 257 0
300 2 313 16 14 14 16 67 16 435 l0 419 128 0 128 0 188 -412 c104 -227 195
-423 202 -435 l14 -23 325 0 c370 0 358 -3 325 80 -10 25 -104 234 -209 464
-105 231 -191 425 -191 430 0 6 21 22 47 36 106 55 217 193 276 340 58 148 62
189 62 730 0 479 -1 498 -22 582 -41 162 -102 278 -196 377 -112 116 -281 199
-467 226 -127 20 -1229 22 -1248 3z m1208 -282 c223 -62 361 -193 418 -398 15
-55 17 -115 17 -498 0 -371 -3 -446 -17 -507 -50 -218 -176 -340 -406 -395
-48 -12 -89 -23 -91 -24 -2 -2 90 -191 203 -421 114 -229 206 -426 204 -438
-2 -14 -10 -20 -27 -20 -22 0 -44 41 -234 433 l-210 432 -358 0 -359 0 0 -436
0 -435 -27 3 -28 3 -3 1349 c-1 1026 1 1352 10 1363 10 12 76 14 427 10 360
-3 425 -6 481 -21z"/>
<path d="M26290 15999 l0 -861 398 5 c428 4 462 8 577 63 122 57 208 175 240
329 22 103 21 862 0 954 -33 138 -127 256 -248 311 -119 54 -179 60 -592 60
l-375 0 0 -861z m689 530 c121 -22 182 -63 222 -151 23 -51 24 -63 27 -335 2
-172 -1 -304 -7 -340 -16 -84 -56 -159 -104 -194 -69 -50 -122 -61 -339 -66
l-198 -6 0 552 0 551 167 0 c91 0 196 -5 232 -11z"/>
<path d="M28872 17188 c-17 -17 -17 -3239 0 -3256 9 -9 216 -12 869 -12 766 0
859 2 873 16 14 13 16 54 16 294 0 240 -2 281 -16 294 -14 14 -78 16 -560 16
l-544 0 0 365 0 365 424 0 425 0 15 22 c14 19 16 65 16 296 0 169 -4 281 -10
293 -10 18 -26 19 -440 19 l-430 0 0 340 0 340 544 0 c482 0 546 2 560 16 14
13 16 54 16 298 0 206 -3 285 -12 294 -17 17 -1729 17 -1746 0z m1485 -274 c3
-9 2 -24 -4 -33 -9 -14 -68 -16 -577 -19 l-566 -2 0 -615 0 -615 464 0 c421 0
464 -2 470 -16 4 -9 4 -25 1 -35 -6 -18 -27 -19 -471 -19 l-464 0 2 -647 3
-648 570 -5 570 -5 0 -25 0 -25 -595 -3 c-550 -2 -596 -1 -607 15 -17 22 -19
2663 -3 2694 10 18 28 19 606 19 541 0 595 -1 601 -16z"/>
<path d="M642 17148 c-17 -17 -17 -3149 0 -3166 9 -9 88 -12 293 -12 205 0
284 3 293 12 9 9 12 229 12 927 0 503 2 912 5 909 5 -4 77 -268 420 -1538 43
-157 82 -291 87 -297 8 -10 64 -13 218 -13 154 0 210 3 218 13 5 6 82 260 172
562 89 303 207 705 263 895 l102 345 5 -895 c3 -492 9 -901 13 -907 6 -10 76
-13 292 -13 271 0 285 1 295 19 7 13 10 523 10 1580 0 1404 -2 1561 -16 1575
-13 14 -59 16 -353 16 -259 0 -341 -3 -348 -12 -6 -7 -153 -449 -328 -983
-174 -533 -320 -974 -324 -978 -4 -4 -26 54 -49 130 -23 76 -120 401 -216 723
-96 322 -209 700 -250 840 -47 156 -83 260 -93 268 -24 17 -703 18 -721 0z
m503 -254 c17 -4 83 -193 420 -1204 220 -659 402 -1197 404 -1194 3 3 184 539
403 1191 219 653 403 1192 408 1197 15 15 233 21 259 6 l21 -11 0 -1319 c0
-876 -3 -1321 -10 -1325 -6 -3 -19 -3 -30 0 -20 6 -20 19 -22 1298 l-3 1292
-89 0 -89 0 -408 -1224 c-225 -674 -415 -1231 -423 -1239 -8 -8 -21 -12 -29
-9 -10 4 -166 458 -426 1239 l-411 1233 -87 0 -88 0 -3 -1293 c-2 -1142 -4
-1293 -17 -1298 -8 -4 -22 -1 -30 6 -13 11 -15 176 -15 1326 0 1240 1 1314 18
1323 18 11 212 15 247 5z"/>
<path d="M4352 17148 c-17 -17 -17 -3149 0 -3166 18 -18 591 -17 607 1 7 10
12 141 13 423 l3 409 116 3 c90 2 119 -1 128 -11 6 -8 96 -198 199 -423 l187
-409 319 0 c286 0 320 2 329 17 9 13 -28 101 -173 420 -100 221 -193 426 -206
454 l-23 52 59 36 c84 52 179 159 229 258 49 98 76 201 91 339 13 131 13 737
0 868 -43 420 -283 672 -689 727 -142 18 -1170 21 -1189 2z m1167 -277 c230
-58 373 -199 417 -411 23 -113 15 -897 -10 -985 -39 -133 -125 -244 -232 -298
-58 -29 -176 -67 -209 -67 -13 0 -26 -4 -29 -9 -3 -5 84 -192 194 -417 111
-224 199 -415 198 -423 -2 -9 -14 -16 -28 -16 -22 0 -42 37 -229 423 l-205
422 -346 -2 -345 -3 -3 -423 -2 -423 -28 3 -27 3 -3 1300 c-1 715 0 1310 3
1322 3 12 13 24 23 27 9 3 188 3 397 2 348 -4 387 -6 464 -25z"/>
<path d="M4695 16818 c-3 -7 -4 -384 -3 -838 l3 -825 365 1 c410 1 460 7 586
69 124 61 201 172 229 332 21 115 20 791 0 888 -40 187 -154 306 -350 361 -50
15 -121 18 -442 22 -313 3 -384 1 -388 -10z m710 -323 c177 -47 211 -142 203
-553 -6 -255 -19 -323 -79 -395 -64 -77 -141 -97 -384 -97 l-175 0 0 536 0
537 188 -6 c123 -4 207 -11 247 -22z"/>
<path d="M630 12955 l0 -155 14995 0 14995 0 0 155 0 155 -14995 0 -14995 0 0
-155z"/>
</g>
</svg>
